<?xml version="1.0" encoding="UTF-8"?>
<svg version="1.1" xmlns="http://www.w3.org/2000/svg" width="218" height="232">
<path d="M0 0 C71.94 0 143.88 0 218 0 C218 76.56 218 153.12 218 232 C146.06 232 74.12 232 0 232 C0 155.44 0 78.88 0 0 Z " fill="#FEFEFE" transform="translate(0,0)"/>
<path d="M0 0 C1.13673409 0.5700325 1.13673409 0.5700325 2.2964325 1.15158081 C3.16536636 1.58608551 4.03430023 2.02059021 4.92956543 2.46826172 C5.85975998 2.93593964 6.78995453 3.40361755 7.74833679 3.88546753 C8.72433334 4.37417328 9.7003299 4.86287903 10.7059021 5.36639404 C13.82906608 6.93076795 16.95083414 8.49790477 20.07255554 10.06515503 C22.13040531 11.09659047 24.18834713 12.1278423 26.24638367 13.15890503 C30.24084185 15.16023307 34.23435437 17.16343134 38.2273407 19.16769409 C41.69226594 20.90594491 45.16012208 22.63797001 48.63261414 24.36105347 C49.73273079 24.90776199 49.73273079 24.90776199 50.85507202 25.46551514 C52.18169634 26.12425232 53.50910818 26.78140737 54.83752441 27.43652344 C58.24274886 29.12879969 61.52776166 30.93705405 64.76005554 32.94015503 C63.77005554 33.43515503 63.77005554 33.43515503 62.76005554 33.94015503 C60.12005554 32.62015503 57.48005554 31.30015503 54.76005554 29.94015503 C54.43005554 66.24015503 54.10005554 102.54015503 53.76005554 139.94015503 C32.64005554 139.94015503 11.52005554 139.94015503 -10.23994446 139.94015503 C-10.23994446 144.23015503 -10.23994446 148.52015503 -10.23994446 152.94015503 C11.87005554 152.94015503 33.98005554 152.94015503 56.76005554 152.94015503 C56.76005554 153.27015503 56.76005554 153.60015503 56.76005554 153.94015503 C16.17005554 153.94015503 -24.41994446 153.94015503 -66.23994446 153.94015503 C-66.23994446 158.89015503 -66.23994446 163.84015503 -66.23994446 168.94015503 C-68.21994446 168.94015503 -70.19994446 168.94015503 -72.23994446 168.94015503 C-72.23994446 160.03015503 -72.23994446 151.12015503 -72.23994446 141.94015503 C-71.90994446 141.94015503 -71.57994446 141.94015503 -71.23994446 141.94015503 C-71.23994446 150.52015503 -71.23994446 159.10015503 -71.23994446 167.94015503 C-69.91994446 167.94015503 -68.59994446 167.94015503 -67.23994446 167.94015503 C-67.23994446 159.36015503 -67.23994446 150.78015503 -67.23994446 141.94015503 C-58.32994446 141.94015503 -49.41994446 141.94015503 -40.23994446 141.94015503 C-40.23994446 129.73015503 -40.23994446 117.52015503 -40.23994446 104.94015503 C-38.58994446 104.94015503 -36.93994446 104.94015503 -35.23994446 104.94015503 C-35.23994446 117.48015503 -35.23994446 130.02015503 -35.23994446 142.94015503 C-39.85994446 142.94015503 -44.47994446 142.94015503 -49.23994446 142.94015503 C-49.23994446 146.24015503 -49.23994446 149.54015503 -49.23994446 152.94015503 C-36.69994446 152.94015503 -24.15994446 152.94015503 -11.23994446 152.94015503 C-11.38868602 141.41176666 -11.38868602 141.41176666 -11.54658508 129.8835144 C-11.61298095 125.18457238 -11.67828328 120.48563235 -11.73725891 115.78659058 C-11.78485007 111.99994661 -11.8371907 108.21339587 -11.89288521 104.42686272 C-11.91333264 102.97913865 -11.9320417 101.531389 -11.94901848 100.08362007 C-11.97300954 98.06251344 -12.00364521 96.04148893 -12.03462219 94.02047729 C-12.05016647 92.86797989 -12.06571075 91.71548248 -12.08172607 90.52806091 C-11.94877078 88.01044914 -11.94877078 88.01044914 -13.23994446 86.94015503 C-15.90620476 86.85160342 -18.5464156 86.8249083 -21.21260071 86.84249878 C-22.40906471 86.8446212 -22.40906471 86.8446212 -23.62969971 86.8467865 C-26.18731881 86.85240186 -28.74485164 86.86495691 -31.30244446 86.87765503 C-33.03226091 86.88266805 -34.76207872 86.8872313 -36.49189758 86.8913269 C-40.74130685 86.90152712 -44.99052862 86.92109935 -49.23994446 86.94015503 C-49.56994446 92.88015503 -49.89994446 98.82015503 -50.23994446 104.94015503 C-55.84994446 104.94015503 -61.45994446 104.94015503 -67.23994446 104.94015503 C-67.56994446 80.19015503 -67.89994446 55.44015503 -68.23994446 29.94015503 C-68.89994446 29.61015503 -69.55994446 29.28015503 -70.23994446 28.94015503 C-63.83989973 25.66767493 -57.43927841 22.39632462 -51.0382843 19.1257019 C-48.86790887 18.01657741 -46.69765804 16.90720906 -44.52754211 15.7975769 C-42.95625549 14.9941687 -42.95625549 14.9941687 -41.35322571 14.17453003 C-39.79378235 13.37704346 -39.79378235 13.37704346 -38.20283508 12.56344604 C-36.12991092 11.50540453 -34.05569718 10.44988564 -31.98017883 9.39694214 C-27.40121684 7.07392238 -22.83567307 4.73666501 -18.31416321 2.30343628 C-17.579599 1.91538818 -16.84503479 1.52734009 -16.08821106 1.12753296 C-14.75805006 0.42376444 -13.43494305 -0.29358973 -12.12117004 -1.02749634 C-7.02803203 -3.69013261 -4.89681581 -2.31696174 0 0 Z " fill="#212121" transform="translate(124.23994445800781,40.059844970703125)"/>
<path d="M0 0 C0.74567734 -0.0004985 1.49135468 -0.00099701 2.2596283 -0.00151062 C3.83400135 0.00082764 5.4083783 0.0105417 6.98266602 0.02709961 C9.39698553 0.05072881 11.81020335 0.04765469 14.22460938 0.04101562 C15.75391285 0.04659129 17.28321167 0.05370047 18.8125 0.0625 C19.89846214 0.06113289 19.89846214 0.06113289 21.00636292 0.05973816 C26.10879812 0.13223562 26.10879812 0.13223562 28.33984375 2.36328125 C28.58035278 5.07144165 28.58035278 5.07144165 28.56689453 8.55712891 C28.56674347 9.85832672 28.56659241 11.15952454 28.56643677 12.50015259 C28.55622268 13.92588452 28.54579067 15.3516149 28.53515625 16.77734375 C28.5314267 18.23179938 28.52857945 19.68625752 28.52658081 21.14071655 C28.51893975 24.97126181 28.49928732 28.80165571 28.47717285 32.63214111 C28.45313016 37.22679517 28.44393568 41.82149979 28.43226624 46.41619873 C28.41286306 53.39866488 28.3745441 60.38079885 28.33984375 67.36328125 C15.79984375 67.36328125 3.25984375 67.36328125 -9.66015625 67.36328125 C-9.66015625 64.06328125 -9.66015625 60.76328125 -9.66015625 57.36328125 C-5.04015625 57.36328125 -0.42015625 57.36328125 4.33984375 57.36328125 C4.33984375 44.82328125 4.33984375 32.28328125 4.33984375 19.36328125 C2.68984375 19.36328125 1.03984375 19.36328125 -0.66015625 19.36328125 C-0.66015625 31.57328125 -0.66015625 43.78328125 -0.66015625 56.36328125 C-9.57015625 56.36328125 -18.48015625 56.36328125 -27.66015625 56.36328125 C-27.66015625 64.94328125 -27.66015625 73.52328125 -27.66015625 82.36328125 C-28.98015625 82.36328125 -30.30015625 82.36328125 -31.66015625 82.36328125 C-32.15515625 69.98828125 -32.15515625 69.98828125 -32.66015625 57.36328125 C-35.40585937 57.38068359 -35.40585937 57.38068359 -38.20703125 57.3984375 C-40.6080719 57.40781657 -43.00911365 57.41691664 -45.41015625 57.42578125 C-47.22 57.43834961 -47.22 57.43834961 -49.06640625 57.45117188 C-50.2265625 57.45439453 -51.38671875 57.45761719 -52.58203125 57.4609375 C-53.6503418 57.46617432 -54.71865234 57.47141113 -55.81933594 57.47680664 C-58.66015625 57.36328125 -58.66015625 57.36328125 -62.66015625 56.36328125 C-62.66015625 44.15328125 -62.66015625 31.94328125 -62.66015625 19.36328125 C-58.87764028 18.41765226 -55.95898011 18.23420386 -52.0859375 18.23046875 C-50.785354 18.22853516 -49.48477051 18.22660156 -48.14477539 18.22460938 C-46.7540676 18.22871327 -45.3633611 18.23327821 -43.97265625 18.23828125 C-43.27606903 18.23916748 -42.57948181 18.24005371 -41.86178589 18.2409668 C-31.43349982 18.2566233 -21.05724612 18.4981445 -10.66015625 19.36328125 C-10.71236328 17.68298828 -10.71236328 17.68298828 -10.765625 15.96875 C-10.79376464 14.49610874 -10.82106462 13.02345127 -10.84765625 11.55078125 C-10.87279297 10.81279297 -10.89792969 10.07480469 -10.92382812 9.31445312 C-10.99707096 3.91889776 -10.99707096 3.91889776 -9.62060547 1.64892578 C-6.59791834 -0.33332458 -3.4950453 -0.04458544 0 0 Z " fill="#F2AA2D" transform="translate(84.66015625,125.63671875)"/>
<path d="M0 0 C1.01941681 0.50820786 2.03883362 1.01641571 3.08914185 1.5400238 C4.18491547 2.09408401 5.28068909 2.64814423 6.40966797 3.21899414 C7.55611786 3.79315567 8.70256775 4.3673172 9.88375854 4.95887756 C12.31823503 6.17841659 14.75070034 7.40184564 17.18164062 8.62841797 C20.23684681 10.1699311 23.29532142 11.70480249 26.35516739 13.23708153 C40.24501667 20.19386513 54.05742341 27.27975436 67.77685547 34.56665039 C68.43685547 34.89665039 69.09685547 35.22665039 69.77685547 35.56665039 C69.30884836 39.62271204 68.89732339 43.03253718 66.77685547 46.56665039 C66.11685547 46.56665039 65.45685547 46.56665039 64.77685547 46.56665039 C64.77685547 47.22665039 64.77685547 47.88665039 64.77685547 48.56665039 C64.11685547 48.56665039 63.45685547 48.56665039 62.77685547 48.56665039 C62.39529297 48.14512695 62.01373047 47.72360352 61.62060547 47.28930664 C58.90602961 44.7530186 55.63138827 43.5012428 52.27685547 42.00415039 C46.11200003 39.17834584 40.06842513 36.20384584 34.08935547 33.00415039 C25.38867274 28.3622913 16.59518356 23.91691739 7.77685547 19.50415039 C7.1042569 19.16664764 6.43165833 18.8291449 5.73867798 18.48141479 C3.8150435 17.51664137 1.88997672 16.55479489 -0.03564453 15.59399414 C-1.15583984 15.03446045 -2.27603516 14.47492676 -3.43017578 13.8984375 C-7.1636681 11.88302054 -7.1636681 11.88302054 -11.1399231 12.22103882 C-12.22550003 12.76989243 -12.22550003 12.76989243 -13.33300781 13.32983398 C-14.57173141 13.94705826 -14.57173141 13.94705826 -15.83547974 14.57675171 C-16.72911224 15.03490265 -17.62274475 15.49305359 -18.54345703 15.96508789 C-19.94155106 16.6676622 -19.94155106 16.6676622 -21.3678894 17.38442993 C-24.36609271 18.89422908 -27.35700349 20.41791606 -30.34814453 21.94165039 C-32.30994337 22.93080626 -34.27217859 23.91909716 -36.23486328 24.90649414 C-45.94366919 29.80347868 -55.61661828 34.75747042 -65.16702271 39.95809937 C-70.00913178 42.56665039 -70.00913178 42.56665039 -72.22314453 42.56665039 C-72.22314453 43.55665039 -72.22314453 44.54665039 -72.22314453 45.56665039 C-78.84814453 48.56665039 -78.84814453 48.56665039 -82.22314453 48.56665039 C-83.06383868 46.96632902 -83.89545958 45.36123868 -84.72314453 43.75415039 C-85.18720703 42.86083008 -85.65126953 41.96750977 -86.12939453 41.04711914 C-87.22314453 38.56665039 -87.22314453 38.56665039 -87.22314453 35.56665039 C-86.11092529 35.01315918 -84.99870605 34.45966797 -83.8527832 33.8894043 C-79.62643901 31.7854555 -75.40153323 29.67863119 -71.17700195 27.57104492 C-69.36715651 26.66859794 -67.55694938 25.76687584 -65.74633789 24.8659668 C-52.10319358 18.07663449 -38.58697224 11.07547693 -25.13110352 3.9230957 C-22.87629884 2.72931146 -20.61434573 1.55110015 -18.34814453 0.37915039 C-17.25179687 -0.20962891 -17.25179687 -0.20962891 -16.13330078 -0.81030273 C-15.42302734 -1.17446289 -14.71275391 -1.53862305 -13.98095703 -1.91381836 C-13.37396973 -2.2324585 -12.76698242 -2.55109863 -12.14160156 -2.87939453 C-7.81812197 -4.12780064 -3.82266178 -1.91915226 0 0 Z " fill="#E4E4E4" transform="translate(126.22314453125,26.433349609375)"/>
<path d="M0 0 C0.74709229 -0.0033284 1.49418457 -0.0066568 2.26391602 -0.01008606 C3.84423201 -0.01515091 5.42455871 -0.01749452 7.00488281 -0.01733398 C9.42791243 -0.01952259 11.85048836 -0.03768826 14.2734375 -0.05664062 C15.8072901 -0.05957417 17.34114488 -0.06155923 18.875 -0.0625 C19.60211182 -0.06968552 20.32922363 -0.07687103 21.07836914 -0.08427429 C26.20867197 -0.06085928 26.20867197 -0.06085928 28.4375 2.16796875 C28.67800903 4.87612915 28.67800903 4.87612915 28.66455078 8.36181641 C28.66439972 9.66301422 28.66424866 10.96421204 28.66409302 12.30484009 C28.65387893 13.73057202 28.64344692 15.1563024 28.6328125 16.58203125 C28.62908295 18.03648688 28.6262357 19.49094502 28.62423706 20.94540405 C28.616596 24.77594931 28.59694357 28.60634321 28.5748291 32.43682861 C28.55078641 37.03148267 28.54159193 41.62618729 28.52992249 46.22088623 C28.51051931 53.20335238 28.47220035 60.18548635 28.4375 67.16796875 C15.8975 67.16796875 3.3575 67.16796875 -9.5625 67.16796875 C-9.5625 63.86796875 -9.5625 60.56796875 -9.5625 57.16796875 C-4.9425 57.16796875 -0.3225 57.16796875 4.4375 57.16796875 C4.4375 44.29796875 4.4375 31.42796875 4.4375 18.16796875 C-0.1825 18.16796875 -4.8025 18.16796875 -9.5625 18.16796875 C-9.5625 12.55796875 -9.5625 6.94796875 -9.5625 1.16796875 C-6.51721781 -0.35467234 -3.34104754 0.00511338 0 0 Z " fill="#FCFCFC" transform="translate(84.5625,125.83203125)"/>
<path d="M0 0 C10.89 0 21.78 0 33 0 C33 11.22 33 22.44 33 34 C22.11 34 11.22 34 0 34 C0 22.78 0 11.56 0 0 Z " fill="#979797" transform="translate(74,73)"/>
<path d="M0 0 C10.89 0 21.78 0 33 0 C33 10.89 33 21.78 33 33 C22.11 33 11.22 33 0 33 C0 22.11 0 11.22 0 0 Z " fill="#DBDBDB" transform="translate(128,127)"/>
<path d="M0 0 C10.89 0 21.78 0 33 0 C33 10.89 33 21.78 33 33 C22.11 33 11.22 33 0 33 C0 22.11 0 11.22 0 0 Z " fill="#C0C0C0" transform="translate(128,74)"/>
<path d="M0 0 C0.33 0 0.66 0 1 0 C1.00238835 0.56414517 1.00477671 1.12829035 1.00723743 1.70953083 C1.06634819 15.43021714 1.14206249 29.15072505 1.23571491 42.87122059 C1.28050052 49.50633856 1.31973857 56.14139396 1.34643555 62.77661133 C1.37238677 69.17631927 1.41273102 75.57578747 1.46318626 81.97534752 C1.47991045 84.42062086 1.49139 86.86593571 1.49761391 89.31125832 C1.5071946 92.72835229 1.53518189 96.14482513 1.56762695 99.56176758 C1.56619186 100.57956299 1.56475677 101.5973584 1.5632782 102.64599609 C1.58208542 104.0405175 1.58208542 104.0405175 1.60127258 105.46321106 C1.60588155 106.27162351 1.61049051 107.08003595 1.61523914 107.91294575 C2.0915481 110.4965834 3.10033406 111.26076374 5 113 C5.328125 115.4453125 5.328125 115.4453125 5.25 118.125 C5.23453125 119.01445312 5.2190625 119.90390625 5.203125 120.8203125 C5 123 5 123 4 124 C1.88318683 124.0942174 -0.23680758 124.11742761 -2.35571289 124.11352539 C-3.01910172 124.11367142 -3.68249054 124.11381744 -4.36598206 124.1139679 C-6.56823956 124.11326881 -8.77041345 124.10547665 -10.97265625 124.09765625 C-12.49580336 124.09579206 -14.01895107 124.09436816 -15.542099 124.09336853 C-19.55837651 124.08954346 -23.57461808 124.07971328 -27.59088135 124.06866455 C-31.68623366 124.05845019 -35.78159176 124.05387086 -39.87695312 124.04882812 C-47.91798712 124.03809099 -55.95898495 124.02049429 -64 124 C-64 119.71 -64 115.42 -64 111 C-42.88 111 -21.76 111 0 111 C0 74.37 0 37.74 0 0 Z " fill="#EFEFEF" transform="translate(178,69)"/>
<path d="M0 0 C1.65 0 3.3 0 5 0 C5 12.54 5 25.08 5 38 C0.38 38 -4.24 38 -9 38 C-9 41.3 -9 44.6 -9 48 C3.54 48 16.08 48 29 48 C29 48.33 29 48.66 29 49 C10.85 49 -7.3 49 -26 49 C-26 53.95 -26 58.9 -26 64 C-27.98 64 -29.96 64 -32 64 C-32 55.09 -32 46.18 -32 37 C-31.67 37 -31.34 37 -31 37 C-31 45.58 -31 54.16 -31 63 C-29.68 63 -28.36 63 -27 63 C-27 54.42 -27 45.84 -27 37 C-18.09 37 -9.18 37 0 37 C0 24.79 0 12.58 0 0 Z " fill="#49402F" transform="translate(84,145)"/>
<path d="M0 0 C9.9 0 19.8 0 30 0 C30 4.95 30 9.9 30 15 C20.43 15 10.86 15 1 15 C0.67 10.05 0.34 5.1 0 0 Z " fill="#878787" transform="translate(129,128)"/>
<path d="M0 0 C5.61 0 11.22 0 17 0 C17 10.56 17 21.12 17 32 C6.44 32 -4.12 32 -15 32 C-15 27.38 -15 22.76 -15 18 C-14.67 18 -14.34 18 -14 18 C-14 21.96 -14 25.92 -14 30 C-9.38 30 -4.76 30 0 30 C0 25.38 0 20.76 0 16 C4.95 16 9.9 16 15 16 C15 11.38 15 6.76 15 2 C10.05 2 5.1 2 0 2 C0 1.34 0 0.68 0 0 Z " fill="#F8F8F8" transform="translate(90,74)"/>
<path d="M0 0 C10.56 0 21.12 0 32 0 C32 4.95 32 9.9 32 15 C31.67 15 31.34 15 31 15 C31 10.71 31 6.42 31 2 C26.38 2 21.76 2 17 2 C17 6.29 17 10.58 17 15 C16.67 15 16.34 15 16 15 C16 10.71 16 6.42 16 2 C11.38 2 6.76 2 2 2 C2.33 6.29 2.66 10.58 3 15 C6.96 15.33 10.92 15.66 15 16 C15 16.33 15 16.66 15 17 C11.04 17.33 7.08 17.66 3 18 C2.67 21.96 2.34 25.92 2 30 C6.62 30 11.24 30 16 30 C16 26.04 16 22.08 16 18 C16.33 18 16.66 18 17 18 C17 21.96 17 25.92 17 30 C21.62 30 26.24 30 31 30 C31 25.38 31 20.76 31 16 C31.33 16 31.66 16 32 16 C32 21.28 32 26.56 32 32 C21.44 32 10.88 32 0 32 C0 21.44 0 10.88 0 0 Z " fill="#F9F9F9" transform="translate(128,74)"/>
<path d="M0 0 C2 2 2 2 2.1953125 5.0390625 C2.13020833 8.359375 2.06510417 11.6796875 2 15 C6.62 15 11.24 15 16 15 C16 10.71 16 6.42 16 2 C16.33 2 16.66 2 17 2 C17 6.29 17 10.58 17 15 C21.62 15 26.24 15 31 15 C31 10.05 31 5.1 31 0 C31.33 0 31.66 0 32 0 C32 9.57 32 19.14 32 29 C31.67 29 31.34 29 31 29 C31 25.04 31 21.08 31 17 C26.38 17 21.76 17 17 17 C17 20.96 17 24.92 17 29 C16.67 29 16.34 29 16 29 C16 25.04 16 21.08 16 17 C11.38 17 6.76 17 2 17 C2.33 20.96 2.66 24.92 3 29 C6.96 29.33 10.92 29.66 15 30 C15 30.33 15 30.66 15 31 C10.05 31.33 5.1 31.66 0 32 C0 21.44 0 10.88 0 0 Z " fill="#F4F4F4" transform="translate(128,128)"/>
<path d="M0 0 C4.29 0 8.58 0 13 0 C13 4.29 13 8.58 13 13 C8.71 13 4.42 13 0 13 C0 8.71 0 4.42 0 0 Z " fill="#787878" transform="translate(92,91)"/>
<path d="M0 0 C4.29 0 8.58 0 13 0 C13 4.29 13 8.58 13 13 C8.71 13 4.42 13 0 13 C0 8.71 0 4.42 0 0 Z " fill="#777777" transform="translate(77,91)"/>
<path d="M0 0 C4.95 0 9.9 0 15 0 C15 3.3 15 6.6 15 10 C10.05 10 5.1 10 0 10 C0 6.7 0 3.4 0 0 Z " fill="#FCFCFC" transform="translate(58,183)"/>
<path d="M0 0 C1.32 0 2.64 0 4 0 C4 12.21 4 24.42 4 37 C2.68 37 1.36 37 0 37 C0 24.79 0 12.58 0 0 Z " fill="#141517" transform="translate(85,145)"/>
<path d="M0 0 C1.60875 -0.04125 3.2175 -0.0825 4.875 -0.125 C5.77992187 -0.14820313 6.68484375 -0.17140625 7.6171875 -0.1953125 C10 0 10 0 12 2 C12.125 4.9375 12.125 4.9375 12 8 C12 8.99 12 9.98 12 11 C12 11.66 12 12.32 12 13 C7.125 12.125 7.125 12.125 6 11 C5.67 11.66 5.34 12.32 5 13 C3.35 13 1.7 13 0 13 C0 8.71 0 4.42 0 0 Z " fill="#FCF5DF" transform="translate(27,157)"/>
<path d="M0 0 C2.475 0.495 2.475 0.495 5 1 C6.3125 3.0625 6.3125 3.0625 7 5 C7.66 5 8.32 5 9 5 C9 3.35 9 1.7 9 0 C10.32 0 11.64 0 13 0 C13 4.29 13 8.58 13 13 C11.35 12.67 9.7 12.34 8 12 C6.6875 9.9375 6.6875 9.9375 6 8 C5.34 8 4.68 8 4 8 C4 9.65 4 11.3 4 13 C2.68 13 1.36 13 0 13 C0 8.71 0 4.42 0 0 Z " fill="#FEFCF1" transform="translate(54,157)"/>
<path d="M0 0 C3.63 0 7.26 0 11 0 C11 3.63 11 7.26 11 11 C7.37 11 3.74 11 0 11 C0 7.37 0 3.74 0 0 Z " fill="#F4F4F4" transform="translate(93,77)"/>
<path d="M0 0 C3.63 0 7.26 0 11 0 C11 3.63 11 7.26 11 11 C7.37 11 3.74 11 0 11 C0 7.37 0 3.74 0 0 Z " fill="#F4F4F4" transform="translate(78,77)"/>
<path d="M0 0 C3.63 0 7.26 0 11 0 C11 0.99 11 1.98 11 3 C9.02 3 7.04 3 5 3 C5 3.66 5 4.32 5 5 C6.65 5 8.3 5 10 5 C10 5.99 10 6.98 10 8 C8.02 8 6.04 8 4 8 C4 8.66 4 9.32 4 10 C6.31 10 8.62 10 11 10 C11 10.99 11 11.98 11 13 C7.37 13 3.74 13 0 13 C0 8.71 0 4.42 0 0 Z " fill="#FEFCEF" transform="translate(41,157)"/>
<path d="M0 0 C3.3 0 6.6 0 10 0 C10 3.63 10 7.26 10 11 C6.7 11 3.4 11 0 11 C0 7.37 0 3.74 0 0 Z " fill="#FDFDFD" transform="translate(147,131)"/>
<path d="M0 0 C3.3 0 6.6 0 10 0 C10 3.63 10 7.26 10 11 C6.7 11 3.4 11 0 11 C0 7.37 0 3.74 0 0 Z " fill="#FDFDFD" transform="translate(132,131)"/>
<path d="M0 0 C3.3 0 6.6 0 10 0 C10 3.63 10 7.26 10 11 C6.7 11 3.4 11 0 11 C0 7.37 0 3.74 0 0 Z " fill="#FBFBFB" transform="translate(147,77)"/>
<path d="M0 0 C3.3 0 6.6 0 10 0 C10 3.63 10 7.26 10 11 C6.7 11 3.4 11 0 11 C0 7.37 0 3.74 0 0 Z " fill="#FBFBFB" transform="translate(132,77)"/>
<path d="M0 0 C1.32 0 2.64 0 4 0 C4 8.58 4 17.16 4 26 C2.68 26 1.36 26 0 26 C0 17.42 0 8.84 0 0 Z " fill="#F3F3F1" transform="translate(53,182)"/>
<path d="M0 0 C3.3 0 6.6 0 10 0 C10 3.3 10 6.6 10 10 C6.7 10 3.4 10 0 10 C0 6.7 0 3.4 0 0 Z " fill="#FAFAFA" transform="translate(147,146)"/>
<path d="M0 0 C3.3 0 6.6 0 10 0 C10 3.3 10 6.6 10 10 C6.7 10 3.4 10 0 10 C0 6.7 0 3.4 0 0 Z " fill="#FAFAFA" transform="translate(132,146)"/>
<path d="M0 0 C3.3 0 6.6 0 10 0 C10 3.3 10 6.6 10 10 C6.7 10 3.4 10 0 10 C0 6.7 0 3.4 0 0 Z " fill="#FCFCFC" transform="translate(147,93)"/>
<path d="M0 0 C3.3 0 6.6 0 10 0 C10 3.3 10 6.6 10 10 C6.7 10 3.4 10 0 10 C0 6.7 0 3.4 0 0 Z " fill="#FCFCFC" transform="translate(132,93)"/>
<path d="M0 0 C2.97 0 5.94 0 9 0 C9 2.97 9 5.94 9 9 C6.03 9 3.06 9 0 9 C0 6.03 0 3.06 0 0 Z " fill="#FFFFFF" transform="translate(94,93)"/>
<path d="M0 0 C2.97 0 5.94 0 9 0 C9 2.97 9 5.94 9 9 C6.03 9 3.06 9 0 9 C0 6.03 0 3.06 0 0 Z " fill="#FFFFFF" transform="translate(79,93)"/>
<path d="M0 0 C1.093125 0.00257812 2.18625 0.00515625 3.3125 0.0078125 C4.405625 0.00523438 5.49875 0.00265625 6.625 0 C9.3125 0.1328125 9.3125 0.1328125 10.3125 1.1328125 C10.45605117 5.13501903 10.35466403 9.12722933 10.3125 13.1328125 C5.6925 13.1328125 1.0725 13.1328125 -3.6875 13.1328125 C-3.78515625 3.85546875 -3.78515625 3.85546875 -3.6875 1.1328125 C-2.6875 0.1328125 -2.6875 0.1328125 0 0 Z M-1.6875 2.1328125 C-1.6875 5.4328125 -1.6875 8.7328125 -1.6875 12.1328125 C1.6125 12.1328125 4.9125 12.1328125 8.3125 12.1328125 C8.3125 8.8328125 8.3125 5.5328125 8.3125 2.1328125 C5.0125 2.1328125 1.7125 2.1328125 -1.6875 2.1328125 Z " fill="#6E6E6E" transform="translate(133.6875,90.8671875)"/>
<path d="M0 0 C3.96 0 7.92 0 12 0 C12 0.99 12 1.98 12 3 C10.68 3 9.36 3 8 3 C8 6.3 8 9.6 8 13 C6.68 13 5.36 13 4 13 C4 9.7 4 6.4 4 3 C2.68 3 1.36 3 0 3 C0 2.01 0 1.02 0 0 Z " fill="#FEFDF3" transform="translate(68,157)"/>
<path d="M0 0 C4.29 0 8.58 0 13 0 C13 4.62 13 9.24 13 14 C3.72265625 14.09765625 3.72265625 14.09765625 1 14 C0 13 0 13 -0.09765625 10.05859375 C-0.06510417 6.70572917 -0.03255208 3.35286458 0 0 Z M2 1 C2 4.63 2 8.26 2 12 C5.3 12 8.6 12 12 12 C12 8.37 12 4.74 12 1 C8.7 1 5.4 1 2 1 Z " fill="#666666" transform="translate(145,76)"/>
<path d="M0 0 C4.29 0 8.58 0 13 0 C13 4.62 13 9.24 13 14 C3.72265625 14.09765625 3.72265625 14.09765625 1 14 C0 13 0 13 -0.09765625 10.05859375 C-0.06510417 6.70572917 -0.03255208 3.35286458 0 0 Z M2 1 C2 4.63 2 8.26 2 12 C5.3 12 8.6 12 12 12 C12 8.37 12 4.74 12 1 C8.7 1 5.4 1 2 1 Z " fill="#696969" transform="translate(130,76)"/>
<path d="M0 0 C4.29 0 8.58 0 13 0 C13 4.29 13 8.58 13 13 C3.72265625 13.09765625 3.72265625 13.09765625 1 13 C0 12 0 12 -0.09765625 9.27734375 C-0.06510417 6.18489583 -0.03255208 3.09244792 0 0 Z M2 1 C2 4.3 2 7.6 2 11 C5.3 11 8.6 11 12 11 C12 7.7 12 4.4 12 1 C8.7 1 5.4 1 2 1 Z " fill="#636363" transform="translate(130,145)"/>
<path d="M0 0 C4.29 0 8.58 0 13 0 C13 4.29 13 8.58 13 13 C3.72265625 13.09765625 3.72265625 13.09765625 1 13 C0 12 0 12 -0.09765625 9.27734375 C-0.06510417 6.18489583 -0.03255208 3.09244792 0 0 Z M2 1 C2 4.3 2 7.6 2 11 C5.3 11 8.6 11 12 11 C12 7.7 12 4.4 12 1 C8.7 1 5.4 1 2 1 Z " fill="#5F5F5F" transform="translate(145,145)"/>
<path d="M0 0 C3.09244792 0.03255208 6.18489583 0.06510417 9.27734375 0.09765625 C9.27734375 4.38765625 9.27734375 8.67765625 9.27734375 13.09765625 C4.98734375 13.09765625 0.69734375 13.09765625 -3.72265625 13.09765625 C-3.8203125 3.8203125 -3.8203125 3.8203125 -3.72265625 1.09765625 C-2.72265625 0.09765625 -2.72265625 0.09765625 0 0 Z M-1.72265625 2.09765625 C-1.72265625 5.39765625 -1.72265625 8.69765625 -1.72265625 12.09765625 C1.57734375 12.09765625 4.87734375 12.09765625 8.27734375 12.09765625 C8.27734375 8.79765625 8.27734375 5.49765625 8.27734375 2.09765625 C4.97734375 2.09765625 1.67734375 2.09765625 -1.72265625 2.09765625 Z " fill="#606060" transform="translate(148.72265625,90.90234375)"/>
<path d="M0 0 C0.66 0 1.32 0 2 0 C2 4.29 2 8.58 2 13 C1.34 13 0.68 13 0 13 C0 12.01 0 11.02 0 10 C-2.31 10 -4.62 10 -7 10 C-7 9.34 -7 8.68 -7 8 C-5.02 8 -3.04 8 -1 8 C-1 7.01 -1 6.02 -1 5 C-2.65 5 -4.3 5 -6 5 C-6 4.34 -6 3.68 -6 3 C-4.02 3 -2.04 3 0 3 C0 2.01 0 1.02 0 0 Z " fill="#F2B74C" transform="translate(52,157)"/>
<path d="M0 0 C2.125 0.375 2.125 0.375 4 1 C5.125 4.75 5.125 4.75 4 7 C2.35 7 0.7 7 -1 7 C-1.625 4.625 -1.625 4.625 -2 2 C-1.34 1.34 -0.68 0.68 0 0 Z " fill="#8B8B8B" transform="translate(104,154)"/>
<path d="M0 0 C0.33 0 0.66 0 1 0 C1.8149484 9.1775727 2.11139151 17.81819633 1 27 C0.67 27 0.34 27 0 27 C-0.89191731 17.84755626 -0.98753178 9.14606357 0 0 Z " fill="#FEFEFE" transform="translate(144,130)"/>
<path d="M0 0 C0.66 0 1.32 0 2 0 C2.14285714 8.57142857 2.14285714 8.57142857 1 12 C-0.65 12 -2.3 12 -4 12 C-2.68 11.67 -1.36 11.34 0 11 C-0.556875 10.2265625 -0.556875 10.2265625 -1.125 9.4375 C-2.40331649 5.87647549 -1.20550735 3.4825768 0 0 Z " fill="#F5B341" transform="translate(39,159)"/>
</svg>
