<svg width="16" height="18" viewBox="0 0 16 18" fill="none" xmlns="http://www.w3.org/2000/svg">
<path d="M13 5.66675C13 4.34067 12.4732 3.0689 11.5355 2.13121C10.5979 1.19353 9.32608 0.666748 8 0.666748C6.67392 0.666748 5.40215 1.19353 4.46447 2.13121C3.52678 3.0689 3 4.34067 3 5.66675C3 11.5001 0.5 13.1667 0.5 13.1667H15.5C15.5 13.1667 13 11.5001 13 5.66675Z" fill="white"/>
<path d="M9.44167 16.5001C9.29516 16.7526 9.08487 16.9623 8.83185 17.108C8.57884 17.2538 8.29198 17.3305 8 17.3305C7.70802 17.3305 7.42116 17.2538 7.16814 17.108C6.91513 16.9623 6.70484 16.7526 6.55833 16.5001" fill="white"/>
</svg>
